FILE "Rockman 8 - Metal Heroes (Japan) (Track 1).bin" BINARY
  TRACK 01 MODE2/2352
    INDEX 01 00:00:00
FILE "Rockman 8 - Metal Heroes (Japan) (Track 2).bin" BINARY
  TRACK 02 AUDIO
    INDEX 00 00:00:00
    INDEX 01 00:02:00
FILE "Rockman 8 - Metal Heroes (Japan) (Track 3).bin" BINARY
  TRACK 03 AUDIO
    INDEX 00 00:00:00
    INDEX 01 00:02:00
FILE "Rockman 8 - Metal Heroes (Japan) (Track 4).bin" BINARY
  TRACK 04 AUDIO
    INDEX 00 00:00:00
    INDEX 01 00:02:00
